<?xml version="1.0" encoding="UTF-8"?>
<svg xmlns="http://www.w3.org/2000/svg" viewBox="0 0 111 24" fill-rule="evenodd" clip-rule="evenodd" stroke-linejoin="round" stroke-miterlimit="2">
  <path d="M16.98 10.545c-.16.16-.65.64-3.08 1.42-.3.09-.56.08-.83.02.54.58.54 1.5-.04 2.077-1.279 1.27-4.183 4.02-7.049 5.85 1.17.68 2.53 1.07 3.99 1.07 4.41 0 8-3.59 8-8 0-1.07-.22-2.09-.6-3.03-.12.2-.25.39-.42.56l.029.033zM13.607 11.02c.516-.17 2.234-.74 2.67-1.19.58-.59.58-1.54 0-2.13-.29-.29-.66-.44-1.06-.44h-.01c-.41 0-.78.15-1.061.44-.45.44-1.02 2.15-1.19 2.67-.13.39.24.75.63.62l.021.03zm1.26-2.6c.19-.2.51-.2.7 0 .19.19.19.51 0 .7-.13.12-.68.36-1.31.6.23-.63.47-1.18.6-1.31l.01.01z" fill-rule="nonzero"></path>
  <path d="M12.35 12.657c-.2-.2-.52-.2-.71-.01-5.735 5.708-9.88 7.554-10.481 6.946-.268-.27-.08-1.48 1.37-3.75.27.71.64 1.37 1.1 1.97 1.72-1 4.29-2.89 7.3-5.884.391-.39.93-.5 1.436-.37-.39-.4-.53-.98-.36-1.5.78-2.43 1.26-2.92 1.42-3.08.29-.3.67-.492 1.06-.61a7.943 7.943 0 00-4.523-1.41c-4.42 0-8 3.58-8 8 0 .55.06 1.08.17 1.6-2 2.91-2.58 4.837-1.71 5.7 2.093 2.093 9.73-4.8 11.892-6.95.19-.2.19-.52 0-.71l.036.058zM23.35.646a.512.512 0 00-.56-.11l-2.48 1.061c-.06.02-.12.06-.16.1l-1.55 1.54-1.83-.609a.483.483 0 00-.52.121l-1.77 1.76c-.2.19-.2.51 0 .7l.51.51 1.61-1.62c.19-.2.51-.2.7 0 .19.19.19.51 0 .7L15.68 6.41l1.79 1.79 1.61-1.62c.19-.2.51-.2.7 0 .19.19.19.51 0 .7l-1.62 1.61.51.51c.19.19.51.19.7 0l1.76-1.77c.13-.14.18-.34.12-.52l-.61-1.83 1.54-1.549c.04-.05.08-.1.1-.16l1.061-2.48c.07-.19.03-.41-.11-.55l.119.105z" fill-rule="nonzero"></path>
  <path fill="none" d="M0 0h24v24H0z"></path>
  <g>
    <path d="M26.885 19.967V4.75h7.782c.783 0 1.5.11 2.174.348.652.24 1.218.587 1.696 1 .456.435.826.957 1.108 1.544.261.586.392 1.239.392 1.956 0 .956-.261 1.804-.783 2.565-.522.76-1.217 1.326-2.065 1.717l3.326 6.087H36.34l-2.87-5.543h-2.847v5.543h-3.739zM34.32 7.946h-3.696v3.434h3.696c.587 0 1.043-.152 1.413-.478.347-.326.521-.739.521-1.239 0-.5-.174-.913-.521-1.239-.37-.326-.826-.478-1.413-.478zM40.602 14.228c0-.826.174-1.609.5-2.348a6.07 6.07 0 011.326-1.89c.543-.544 1.217-.957 1.978-1.283a6.467 6.467 0 012.435-.457c.87 0 1.695.152 2.456.457.739.326 1.413.739 1.978 1.282.544.544 1 1.174 1.326 1.891.304.74.478 1.522.478 2.348 0 .826-.174 1.609-.478 2.326a6.278 6.278 0 01-1.326 1.913 6.27 6.27 0 01-1.978 1.26 6.58 6.58 0 01-2.456.457c-.87 0-1.674-.152-2.435-.456-.76-.305-1.435-.718-1.978-1.261a5.921 5.921 0 01-1.326-1.913c-.326-.717-.5-1.5-.5-2.326zm6.239 2.913c.782 0 1.456-.283 2-.848.543-.565.804-1.26.804-2.065 0-.826-.261-1.522-.805-2.087a2.678 2.678 0 00-2-.848c-.782 0-1.434.283-1.978.848-.543.565-.826 1.261-.826 2.087 0 .804.283 1.5.826 2.065.544.565 1.196.848 1.979.848zM60.579 17.14c.478 0 .913-.108 1.326-.303.413-.196.804-.522 1.174-.935l2.087 2.174a5.849 5.849 0 01-2.13 1.543 6.163 6.163 0 01-2.631.565 6.245 6.245 0 01-2.391-.456 5.63 5.63 0 01-1.935-1.261 5.945 5.945 0 01-1.282-1.891c-.326-.718-.479-1.5-.479-2.348 0-.848.153-1.63.479-2.37a5.945 5.945 0 011.282-1.89 6.34 6.34 0 011.935-1.261 6.245 6.245 0 012.39-.457c.936 0 1.849.196 2.696.565.848.37 1.587.892 2.174 1.565l-2.152 2.24c-.413-.457-.826-.783-1.239-1a2.983 2.983 0 00-1.391-.327c-.76 0-1.391.283-1.891.848-.522.565-.783 1.261-.783 2.087 0 .826.261 1.522.804 2.065.522.565 1.174.848 1.957.848zM66.557 19.967V4.75l3.521-.76v9.173l4.587-4.695h3.934l-5.108 5.195 5.456 6.304h-4.456l-4.413-5.152v5.152h-3.521z" fill-rule="nonzero"></path>
    <path d="M89.207 18.445a7.686 7.686 0 01-2.217 1.326c-.782.283-1.63.413-2.587.413a6.58 6.58 0 01-2.456-.456c-.76-.305-1.435-.718-1.978-1.261a5.921 5.921 0 01-1.326-1.913c-.326-.717-.5-1.5-.5-2.326 0-.826.152-1.609.478-2.348a5.884 5.884 0 011.261-1.89 5.75 5.75 0 011.913-1.262 5.95 5.95 0 012.348-.456c.847 0 1.608.152 2.326.478.717.326 1.326.761 1.847 1.304.5.544.913 1.218 1.196 1.979.282.782.435 1.63.435 2.521v.87H81.75c.24.543.587.978 1.087 1.304.5.348 1.065.522 1.74.522.478 0 .912-.087 1.304-.24a2.53 2.53 0 001-.63l2.325 2.065zm-5.13-7.304c-.587 0-1.087.152-1.5.479-.413.326-.717.76-.89 1.347h4.803c-.195-.543-.5-1-.913-1.326a2.442 2.442 0 00-1.5-.5zM92.794 16.467v-5.065h-2.326V8.468h2.326V5.51l3.522-.76v3.717h3.217v2.934h-3.217v4.37c0 .5.108.869.348 1.065.217.217.608.326 1.173.326.283 0 .544-.022.783-.066.239-.021.522-.086.804-.173v2.847c-.326.109-.717.174-1.217.261-.5.065-.913.087-1.24.087-1.369 0-2.412-.304-3.108-.935-.717-.608-1.065-1.521-1.065-2.717zM100.229 18.684l1.673-2.37c.718.436 1.392.74 1.978.936a5.556 5.556 0 001.761.304c.587 0 1.044-.087 1.391-.26.326-.153.5-.37.5-.653 0-.217-.087-.391-.282-.543-.196-.13-.478-.218-.891-.283l-2.283-.348c-1.13-.174-2-.565-2.608-1.152-.61-.565-.913-1.348-.913-2.282 0-1.153.434-2.066 1.326-2.74.89-.673 2.086-1 3.63-1 .826 0 1.652.11 2.5.348.826.261 1.586.587 2.304 1.044l-1.674 2.26a8.418 8.418 0 00-1.782-.804 6.514 6.514 0 00-1.696-.239c-.457 0-.804.087-1.087.218-.282.152-.413.37-.413.608 0 .24.109.413.304.544.196.152.544.26 1.044.326l2.282.348c1.13.152 2 .521 2.63 1.108.61.587.914 1.348.914 2.24 0 .543-.13 1.064-.392 1.543-.26.478-.608.89-1.065 1.239-.456.347-1.022.608-1.652.804-.63.217-1.326.304-2.065.304-1.087 0-2.087-.13-3.022-.391-.934-.24-1.739-.609-2.412-1.109z" fill-rule="nonzero"></path>
  </g>
</svg>
